<svg xmlns="http://www.w3.org/2000/svg" width="32.675" height="34.673" viewBox="0 0 32.675 34.673"><defs><style>.a{fill:none;}.a,.b{stroke:#1d344a;stroke-width:0.5px;}.b{fill:#13344b;}.c{fill:#ffc64a;}</style></defs><g transform="translate(0.251 0.25)"><path class="a" d="M35.427,124.68l-1.658,1.3a1.053,1.053,0,0,1-1.331-1.633l2.724-2.307c-.494-4.235-1.261-7.469-2.45-7.309-9.086,1.218-9.807,16.724-9.71,23.182a2.839,2.839,0,0,0,2.84,2.794h3.435a6.658,6.658,0,0,0,6.656-6.871C35.844,131.033,35.69,127.738,35.427,124.68Z" transform="translate(-22.462 -107.068)"/><path class="a" d="M298.321,114.731c-1.189-.159-1.955,3.074-2.449,7.309l2.724,2.307a1.053,1.053,0,0,1-1.331,1.633l-1.658-1.3c-.263,3.058-.417,6.353-.507,9.156a6.659,6.659,0,0,0,6.656,6.871h3.435a2.839,2.839,0,0,0,2.84-2.794C308.129,131.455,307.408,115.949,298.321,114.731Z" transform="translate(-276.402 -107.068)"/><path class="b" d="M36.99,7.134a1.21,1.21,0,0,0-.917.266c-.558.434-1.359,1.593-2.012,6.528-.36-.372-.977-.6-.977-1.329V1.271A1.272,1.272,0,0,0,31.814,0H30.356a1.272,1.272,0,0,0-1.271,1.271V12.6c0,.612-.4.837-.977,1.329C27.455,8.992,26.655,7.833,26.1,7.4a1.211,1.211,0,0,0-.917-.266c-2.993.4-5.376,2.285-7.084,5.6a.534.534,0,1,0,.949.489c1.539-2.985,3.651-4.677,6.277-5.029.014,0,.047-.006.12.05.968.752,1.55,5.309,1.695,6.508-2.653,2.248-2.511,2.124-2.564,2.174a1.587,1.587,0,0,0,2.065,2.408l.877-.687c.185,2.387.328,5.12.424,8.141a6.12,6.12,0,0,1-6.122,6.32H18.381a2.314,2.314,0,0,1-2.306-2.268,48.423,48.423,0,0,1,1.509-13.829.534.534,0,1,0-1.027-.294,52.336,52.336,0,0,0-1.55,14.139,3.387,3.387,0,0,0,3.374,3.32h3.435a7.187,7.187,0,0,0,7.189-7.422c-.107-3.34-.27-6.33-.484-8.9l1.911-1.5a1.056,1.056,0,0,1,1.306,0l1.911,1.5c-.215,2.566-.377,5.557-.484,8.9a7.187,7.187,0,0,0,7.189,7.422h3.435a3.387,3.387,0,0,0,3.374-3.32C47.3,21.959,45.795,8.314,36.99,7.134Zm-7.217,8.382-3.8,2.975a.519.519,0,0,1-.656-.805l4.071-3.448a2.146,2.146,0,0,0,.76-1.641V9.438h.587a.534.534,0,1,0,0-1.068h-.587v-7.1a.2.2,0,0,1,.2-.2h1.458a.2.2,0,0,1,.2.2V4.154h-.486a.534.534,0,0,0,0,1.068h.486V12.6a2.146,2.146,0,0,0,.76,1.641l4.071,3.448a.52.52,0,0,1-.332.916c-.251,0,.024.162-4.12-3.087a2.122,2.122,0,0,0-2.624,0ZM46.095,30.837a2.314,2.314,0,0,1-2.306,2.268H40.354a6.12,6.12,0,0,1-6.122-6.32c.1-3.021.239-5.754.424-8.141.622.444,1.754,1.769,2.968.57a1.587,1.587,0,0,0,.27-1.914c-.239-.421-.3-.34-2.861-2.55.625-5.164,1.391-6.272,1.695-6.508.073-.057.105-.052.12-.05,8.069,1.081,9.37,14.482,9.247,22.645Z" transform="translate(-15 0)"/><path class="c" d="M79.518,283.472a.534.534,0,0,0-.938-.232l-.813,1a2.437,2.437,0,0,1-1.779.814.534.534,0,0,0,.074,1.063,5.266,5.266,0,0,0,.523-.068,3.145,3.145,0,0,0,.968-.3,3.992,3.992,0,0,0,.214,1.445.527.527,0,0,0,.516.4.534.534,0,0,0,.517-.67,2.467,2.467,0,0,1,.061-1.955C79.489,283.776,79.571,283.736,79.518,283.472Z" transform="translate(-71.489 -264.153)"/><path class="c" d="M101.424,378.8a.535.535,0,0,0-.527-.781c-.372.041-.463.354-1.172,1.192a2.513,2.513,0,0,1-1.779.814.534.534,0,0,0,.149,1.058,3.994,3.994,0,0,0,1.415-.363,3.993,3.993,0,0,0,.214,1.445.527.527,0,0,0,.516.4.534.534,0,0,0,.517-.67,2.455,2.455,0,0,1,.061-1.955Z" transform="translate(-91.982 -352.787)"/><path class="c" d="M391.854,289.294a2.456,2.456,0,0,1-1.779-.814l-.813-1a.534.534,0,0,0-.885.589l.605,1.136a2.437,2.437,0,0,1,.061,1.955.534.534,0,0,0,1.033.273,3.993,3.993,0,0,0,.214-1.445,3.994,3.994,0,0,0,1.415.363.534.534,0,1,0,.149-1.057Z" transform="translate(-363.398 -268.111)"/><path class="c" d="M352.035,368.955a2.458,2.458,0,0,1-1.779-.814c-.853-1.046-.811-1-.849-1.039a.534.534,0,0,0-.9.5,8.279,8.279,0,0,0,.653,1.265,2.438,2.438,0,0,1,.061,1.955.534.534,0,1,0,1.033.273,3.994,3.994,0,0,0,.214-1.445,4,4,0,0,0,1.415.363.534.534,0,0,0,.149-1.057Z" transform="translate(-326.236 -342.452)"/><path class="c" d="M48.773,215.03a.534.534,0,1,0-.535-.534A.534.534,0,0,0,48.773,215.03Z" transform="translate(-46.02 -199.681)"/></g></svg>