<svg xmlns="http://www.w3.org/2000/svg" width="32.057" height="32.056" viewBox="0 0 32.057 32.056"><defs><style>.a{fill:#1d344a;}.b{fill:#ffc64a;}</style></defs><path class="a" d="M31.916,12.212,31.8,11.4H28.3V6.324L22.12.008h-8.3L7.638,6.324V11.4h-3.5l-.113.81A14.092,14.092,0,0,0,16.882,28.264a2.822,2.822,0,0,1-2.67,1.921H0v1.878H14.212a4.7,4.7,0,0,0,4.606-3.783,14.092,14.092,0,0,0,13.1-16.068ZM9.517,7.09l5.091-5.2H21.33l5.091,5.2v7.13a8.464,8.464,0,0,1-7.513,8.4V20.633a2.822,2.822,0,0,0,1.878-2.656v-1.1a2.822,2.822,0,0,0,1.878-2.656v-4.7H13.273v4.7a2.822,2.822,0,0,0,1.878,2.656v1.1a2.822,2.822,0,0,0,1.878,2.656V22.62a8.464,8.464,0,0,1-7.513-8.4Zm5.635,7.13V11.4h5.635V14.22a.94.94,0,0,1-.939.939H16.09A.94.94,0,0,1,15.151,14.22Zm3.757,2.817v.939a.939.939,0,0,1-1.878,0v-.939ZM5.795,13.281H7.638v.939A10.344,10.344,0,0,0,17.03,24.507v1.885A12.218,12.218,0,0,1,5.795,13.281ZM18.908,26.392V24.507A10.344,10.344,0,0,0,28.3,14.22v-.939h1.843A12.219,12.219,0,0,1,18.908,26.392Z" transform="translate(0 -0.008)"/><rect class="b" width="6.009" height="2.003" transform="translate(15.023 5.512)"/></svg>