<svg xmlns="http://www.w3.org/2000/svg" width="36.706" height="42.144" viewBox="0 0 36.706 42.144"><defs><style>.a{fill:#1d344a;}</style></defs><path class="a" d="M38.987,36.415V9.157a3.4,3.4,0,0,0-3.4-3.4H30.762a3.39,3.39,0,0,0-1.291-2.022V1.68a.68.68,0,0,0-.68-.68H26.072a.68.68,0,0,0-.68.68V3.737A3.39,3.39,0,0,0,24.1,5.758H15.807a3.39,3.39,0,0,0-1.291-2.022V1.68a.68.68,0,0,0-.68-.68H11.118a.68.68,0,0,0-.68.68V3.737a3.363,3.363,0,0,0,0,5.4v1.377h-.68a3.4,3.4,0,0,0-3.4,3.4v3.4H5.68a.68.68,0,0,0-.68.68v2.719a.68.68,0,0,0,.68.68h.68v9.516H5.68a.68.68,0,0,0-.68.68v2.719a.68.68,0,0,0,.68.68h.68v4.758a3.4,3.4,0,0,0,3.4,3.4H15.2a3.4,3.4,0,0,0,3.4-3.4V34.987h2.719v4.758a3.4,3.4,0,0,0,3.4,3.4H30.15a3.4,3.4,0,0,0,3.4-3.4V34.987h.68a.68.68,0,0,0,.68-.68V31.588a.68.68,0,0,0-.68-.68V21.392a.68.68,0,0,0,.68-.68V17.994a.68.68,0,0,0-.68-.68h-.68v-3.4a3.4,3.4,0,0,0-3.4-3.4h-.68V9.139a3.392,3.392,0,0,0,1.291-2.022h4.827a2.042,2.042,0,0,1,2.039,2.039V36.415a3.4,3.4,0,1,0,1.359,0ZM26.752,2.359h1.359v.748a3.4,3.4,0,0,0-1.359,0Zm.68,2.039a2.036,2.036,0,0,1,1.914,1.359H25.518A2.035,2.035,0,0,1,27.431,4.4ZM25.392,9.139v1.377h-.68a3.4,3.4,0,0,0-3.4,3.4v3.4H18.595v-3.4a3.4,3.4,0,0,0-3.4-3.4h-.68V9.139a3.392,3.392,0,0,0,1.291-2.022H24.1a3.39,3.39,0,0,0,1.291,2.022ZM11.8,2.359h1.359v.748a3.4,3.4,0,0,0-1.359,0Zm.68,2.039a2.036,2.036,0,0,1,1.914,1.359H11.8V7.118h2.594A2.036,2.036,0,1,1,12.477,4.4ZM11.8,9.768a3.4,3.4,0,0,0,1.359,0v.748H11.8ZM7.719,13.915a2.042,2.042,0,0,1,2.039-2.039H15.2a2.042,2.042,0,0,1,2.039,2.039v3.4H7.719ZM6.359,18.673h27.19v1.359H6.359ZM18.595,30.909V21.392h2.719v9.516ZM7.719,21.392h9.516v9.516H7.719Zm9.516,18.353A2.042,2.042,0,0,1,15.2,41.785H9.758a2.042,2.042,0,0,1-2.039-2.039V34.987h9.516Zm14.954,0a2.042,2.042,0,0,1-2.039,2.039H24.713a2.042,2.042,0,0,1-2.039-2.039V34.987H32.19Zm1.359-6.118H6.359V32.268h27.19Zm-.68-2.719h-10.2V21.392h10.2Zm-.68-16.994v3.4H22.673v-3.4a2.042,2.042,0,0,1,2.039-2.039H30.15A2.042,2.042,0,0,1,32.19,13.915Zm-4.078-3.4H26.752V9.768a3.4,3.4,0,0,0,1.359,0Zm-.68-2.039a2.036,2.036,0,0,1-1.914-1.359h3.828A2.035,2.035,0,0,1,27.431,8.477ZM38.307,41.785a2.034,2.034,0,0,1-.68-3.953v1.234h1.359V37.831a2.034,2.034,0,0,1-.68,3.953Z" transform="translate(-5 -1)"/></svg>